<svg xmlns="http://www.w3.org/2000/svg" xml:space="preserve" width="655.359" height="655.359" style="shape-rendering:geometricPrecision;text-rendering:geometricPrecision;image-rendering:optimizeQuality;fill-rule:evenodd;clip-rule:evenodd" viewBox="0 0 6.827 6.827"><defs><clipPath id="id0"><path d="M3.413 0a3.413 3.413 0 1 1 0 6.827 3.413 3.413 0 0 1 0-6.827z"/></clipPath><style>.fil9{fill:#aa6021}.fil1{fill:#b71c1c}.fil7{fill:#e8ba31}.fil4{fill:#f2c84b}.fil6{fill:#ffd452}.fil3,.fil5{fill:#fff3e0}.fil3{fill-rule:nonzero}</style></defs><g id="Layer_x0020_1"><path d="M3.413 0a3.413 3.413 0 1 1 0 6.827 3.413 3.413 0 0 1 0-6.827z" style="fill:#c62828"/><g style="clip-path:url(#id0)"><g id="_637668304"><path id="_5390422561" class="fil1" d="m4.31 2.82 3.787 3.785.03.035.027.035.026.036.024.037.022.038.02.04.02.039.016.04.014.041.013.041.011.042.01.043.007.042.005.043.004.043.002.043v.044l-.002.043-.003.043-.005.044-.008.043-.008.042-.011.043-.012.042-.015.041-.015.041-.018.04-.02.04-.02.04-.023.038-.025.037-3.786-3.786.024-.037.023-.039.021-.039.02-.04.017-.04.016-.041.014-.042.013-.042.01-.042.01-.043.006-.043.006-.043.003-.043.002-.043v-.044l-.002-.043-.004-.043-.005-.043-.008-.043-.009-.042-.011-.042-.013-.041-.015-.041-.016-.04-.019-.04L4.44 3l-.022-.038-.024-.037-.026-.036-.028-.036z"/><path id="_539042640" class="fil1" d="m4.377 4.078 3.786 3.786-.007.011-.008.012-.007.01-.008.012-.009.01-.008.012-.009.01-.008.011-.01.011-.009.011-.01.01-.01.011-.01.01-.01.011-.01.01-.01.01-.012.011-.011.01-.012.01-.011.01-.013.01-.012.01-.012.009-.013.01-.013.009-.014.009-.014.009-.014.009-.014.008-.014.009-.015.008-.015.008L4.025 4.4l.015-.008.014-.008.015-.009.014-.009.014-.009.014-.009.013-.009.013-.009.013-.01.013-.009.012-.01.012-.01.012-.01.012-.01.01-.01.012-.01.01-.01.011-.01.01-.01.01-.011.01-.01.01-.011.01-.011.008-.01.01-.012.008-.01.008-.012.008-.01.008-.012.008-.01.008-.012z"/><path id="_539044104" class="fil1" d="m2.1 2.845 3.786 3.786.005.006.004.006.003.007.003.008.003.008.003.01.002.009.003.01.002.01.003.012.002.011.003.012.004.012.003.011.005.012.004.012.006.012.006.011.007.011.008.011.008.01.01.011-3.786-3.786-.01-.01-.009-.01-.008-.012-.006-.011-.007-.012-.005-.011-.005-.012-.004-.012-.004-.012-.003-.011-.003-.012-.003-.011-.002-.011-.003-.011-.002-.01-.002-.01-.003-.01-.003-.008-.003-.007-.004-.007-.004-.007z"/><path id="_539044272" class="fil1" d="m3.587 4.542 3.787 3.786-.002.008-.002.007-.003.008-.003.007-.004.007-.004.006-.004.006-.005.006-.005.005-.006.005-.005.004-.007.004-.006.004-.007.002-.007.002-.008.002L3.51 4.625l.008-.002.007-.002.007-.003.006-.003.006-.004.006-.004.006-.005.005-.005.005-.006.004-.006.004-.007.003-.006.004-.008.002-.007.003-.008z"/><path id="_539044368" class="fil1" d="m3.408 4.554 3.787 3.787H7.133L3.347 4.553H3.405z"/><path id="_539044488" class="fil1" d="M3.347 4.554 7.133 8.34l-.005.031-3.786-3.786z"/><path id="_539044848" class="fil1" d="m3.087 4.538 3.787 3.786-.072-.011-.07-.015-.066-.017-.065-.02-.061-.022-.06-.024-.056-.027-.054-.03-.052-.03-.049-.034-.047-.034-.044-.037-.042-.038L2.349 4.2l.043.038.044.036.047.035.049.033.052.031.054.03.056.026.06.025.061.022.064.02.067.017.07.015z"/><path id="_539044992" class="fil1" d="M3.342 4.585 7.128 8.37l-.002.012-.002.011-.004.011-.004.01-.005.01-.005.01-.006.01-.007.008-.007.008-.008.008-.008.006-.009.006-.01.005-.01.004-.01.004-.01.002-3.787-3.787.011-.002.01-.003.01-.004.01-.005.009-.006.008-.006.008-.008.007-.008.007-.008.006-.01.005-.01.005-.01.004-.01.003-.011.003-.012z"/><path id="_539044896" class="fil1" d="m3.51 4.721 3.785 3.787V8.537l-.001.005v.029l-.001.004v.032l.001.004v.008l.001.004v.004l.001.004v.003l.001.004.001.003v.004l.002.003-3.787-3.786v-.003l-.001-.004v-.003l-.002-.004v-.007l-.001-.004v-.004l-.001-.004v-.017l-.001-.005V4.751l.001-.005v-.02z"/><path id="_539045088" class="fil1" d="m3.64 4.907 3.786 3.786h-.008L3.63 4.907h.008z"/><path id="_539044392" class="fil1" d="m3.63 4.907 3.787 3.786-.002.002-.003.003-.002.003-.003.003-.002.004-.001.003-.002.004v.004L3.614 4.933l.001-.004.001-.004.002-.004.002-.003.002-.003.003-.003.002-.003z"/><path id="_539044608" class="fil1" d="m3.617 4.935 3.787 3.786.002.002.001.003.001.002.001.003V8.74L3.623 4.953v-.011l-.002-.003-.002-.002z"/><path id="_539044656" class="fil1" d="M3.623 4.953 7.409 8.74l-.001.003-.002.003-.002.003-.003.002-.004.001-.003.001h-.007L3.6 4.967h.011l.003-.002.003-.002.003-.003.002-.003z"/><path id="_539044728" class="fil1" d="m3.6 4.967 3.787 3.786h-.003l-.001-.001h-.001L7.38 8.75h-.002V8.75L3.591 4.964h.002l.002.001h.002v.001H3.6z"/><path id="_539045808" class="fil1" d="M3.477 4.874 7.263 8.66 3.477 4.874z"/><path id="_539045496" class="fil1" d="m3.563 5.01 3.786 3.786L3.563 5.01z"/><path id="_539045832" class="fil1" d="M3.182 4.706 6.97 8.492l-.01-.003-.009-.004-.009-.005-.008-.005-.008-.006-.007-.007L3.13 4.676l.008.007.008.006.008.005.009.005.009.004z"/><path id="_539045400" class="fil1" d="M3.234 4.71 7.02 8.495v.003l.001.004V8.517l.001.004v.067l-.001.004V8.61l-.001.005V8.629L3.232 4.842V4.824l.001-.005V4.801l.001-.004V4.767l.001-.004V4.724l-.001-.004v-.007z"/><path id="_539045640" class="fil1" d="M3.592 4.964 7.378 8.75l-.003.001-.003.002-.002.002-.003.002-.002.002-.003.003-.001.002-.002.003-.002.004-.001.004-.002.003-.001.004-.001.004-.001.004-.001.003-.001.003L3.563 5.01v-.003l.001-.004L3.566 5v-.004l.002-.004.002-.004.001-.003.002-.004.001-.003.002-.003.002-.002.003-.002.002-.002.003-.002.003-.002z"/><path id="_539045760" class="fil1" d="m3.472 4.622 3.786 3.786-.005-.002-.006-.002-.005-.002-.005-.003-.005-.004-.005-.003-.005-.004L3.436 4.6l.005.004.004.004.005.003.005.003.006.003.005.002z"/><path id="_539045592" class="fil1" d="M3.51 4.625 7.296 8.41v.005l.001.005v.073l-.001.007v.007L3.508 4.72V4.708l.001-.007V4.682l.001-.006V4.63z"/><path id="_539045616" class="fil1" d="M3.663 4.875 7.449 8.66l.002.003.002.003v.004l.001.003-3.786-3.786v-.004l-.001-.003-.002-.003z"/><path id="_539045232" class="fil1" d="m3.668 4.888 3.786 3.786v.004l-.001.004-.002.003-.002.003-.003.002-.003.002h-.004l-.003.001-3.787-3.786h.004l.004-.002.003-.001.003-.003.002-.002.002-.004v-.003z"/><path id="_539045184" class="fil1" d="m3.563 5.01 3.786 3.786.002.003.002.004v.01l-.001.004-.002.003-.003.003-3.786-3.787.003-.002.001-.004.002-.003v-.011l-.002-.003z"/><path id="_539045304" class="fil1" d="M3.233 4.842 7.019 8.63V8.648l-.001.007v.02l-.001.007v.033l-.001.006v.037l.001.006v.012l.001.005v.006l.001.005.001.005.001.005v.005l.002.005.001.004.001.005L3.24 5.034l-.001-.004-.001-.005-.001-.004-.001-.005-.001-.005v-.005L3.232 5l-.001-.005v-.011l-.001-.006v-.012L3.23 4.96V4.889l.001-.007V4.87l.001-.007V4.85z"/><path id="_539046216" class="fil1" d="M3.443 5.052 7.23 8.84l.004.004.002.004.001.005.001.005L3.451 5.07v-.006l-.002-.004-.003-.005z"/><path id="_539046552" class="fil1" d="m3.45 5.07 3.787 3.787v.005l-.002.005-.002.004-.003.004-.004.003-.005.002-.004.002H7.21L3.425 5.096h.005l.005-.002.004-.002.004-.003.003-.004.003-.004.001-.005z"/><path id="_539046360" class="fil1" d="m3.425 5.096 3.786 3.786h-.013L3.412 5.096z"/><path id="_539046432" class="fil1" d="m3.412 5.096 3.786 3.786h-.012L3.4 5.096H3.41z"/><path id="_539046312" class="fil1" d="m3.4 5.096 3.786 3.786-.003.004-.004.003-.003.004-.003.005-.003.004-.002.006-.002.005-.001.006-3.787-3.787.001-.005.002-.006.003-.005.002-.005.004-.004.003-.004.003-.004z"/><path id="_539046456" class="fil1" d="M3.381 5.135 7.168 8.92l.002.003.003.003.001.004.001.003v.012L3.39 5.16v-.012l-.001-.004-.002-.003-.002-.003z"/><path id="_539046528" class="fil1" d="m3.389 5.16 3.786 3.786-.002.005-.002.004-.004.004-.004.003-.004.002-.005.001h-.01L3.358 5.178l.005.001h.005l.005-.001.004-.003.004-.002.003-.004.003-.004z"/><path id="_539046624" class="fil1" d="m3.358 5.178 3.786 3.787h-.001l-.001-.001H7.14v-.001h-.002l-.002-.001-.002-.001h-.001L3.346 5.173h.002l.002.001.001.001h.002l.001.001h.002z"/><path id="_539045976" class="fil1" d="m3.189 5.051 3.786 3.787L3.19 5.05z"/><path id="_539046096" class="fil1" d="m3.306 5.238 3.786 3.786-3.786-3.786z"/><path id="_539047128" class="fil1" d="m3.306 5.238 3.787 3.786.003.004.002.005V9.047l-.002.005-.002.004-.004.004-3.786-3.786.004-.004.002-.004.002-.005v-.015l-.003-.004z"/><path id="_539047224" class="fil1" d="M3.304 5.274 7.09 9.06l-.004.003-.004.002-.005.001h-.01l-.005-.002-.004-.003-3.786-3.786.004.002.005.002.005.001h.005l.004-.001.005-.002z"/><path id="_539047248" class="fil1" d="M3.346 5.174 7.133 8.96l-.004.002-.004.003-.004.002-.004.003-.003.003-.003.003-.002.004-.003.004-.002.005-.002.005L7.1 9l-.002.005-.001.005-.002.005-.001.004-.002.005-3.786-3.786.001-.005.002-.005.001-.004.002-.006.002-.005.002-.005.002-.005.002-.005.002-.004.003-.004.003-.003.003-.003.004-.003.004-.003.003-.002z"/><path id="_539047296" class="fil1" d="m3.561 5.036 3.786 3.787-.003.002-.003.001-.004.001H7.33l-.003-.002-.003-.002-3.786-3.786.003.002.003.001h.011l.003-.002z"/><path id="_539047272" class="fil1" d="m3.65 4.907 3.786 3.786h-.01L3.64 4.907z"/><path id="_539046864" class="fil1" d="M4.025 4.4 7.81 8.184l-.012.007-.012.006-.012.007-.012.006-.012.006-.013.006-.012.006-.013.005-.013.006-.012.005-.013.006-.013.005-.014.005-.013.005-.014.004-.013.005-.014.004-.014.005-.014.004-.014.004-.014.004-.014.003-.015.004-.014.003-.015.004-.015.003-.015.003-.015.002-.015.003-.015.002-.016.003-.015.002-3.787-3.786.016-.002.015-.003.016-.002.015-.003.015-.003.015-.003.015-.003.014-.003.015-.003.014-.004.015-.004.014-.004.014-.004.014-.004.014-.004.014-.004.013-.005.014-.005.013-.005.013-.005.013-.005.013-.005.013-.005.013-.006.013-.006.012-.005.013-.006.012-.006.012-.007L4 4.412l.012-.006z"/><path id="_539047176" class="fil1" d="M3.854 1.55 7.64 5.335l.001.002.002.004v.004L3.857 1.56v-.005l-.002-.003z"/><path id="_539046768" class="fil1" d="m3.857 1.56 3.786 3.786V5.36l.001.004V5.372l.001.005v.004l.002.005v.005l.001.005.001.005.001.005.001.005.002.005.001.005.002.005.002.006.002.005.003.005.002.006.003.005.003.006.003.006.004.005.004.006.004.006.004.005.005.006.005.006-3.786-3.786-.005-.006-.005-.006-.005-.006-.004-.005-.003-.006-.004-.006-.003-.005-.003-.006-.003-.005-.003-.006-.002-.005-.002-.006-.002-.005-.002-.005-.001-.005-.002-.005-.001-.006-.001-.005-.001-.005-.001-.004V1.6l-.001-.005V1.59l-.001-.004V1.58l-.001-.004V1.564z"/><path id="_539046840" class="fil1" d="m4.002 1.553 3.786 3.786.002.003v.003l.001.005-3.786-3.787V1.56l-.002-.003z"/><path id="_539046912" class="fil1" d="M4.005 1.563 7.791 5.35v.01l.001.005v.006l.001.005v.006l.001.006.001.006.001.006.002.006.001.006.002.007.002.006.002.007.002.006.003.007.003.007.004.007.004.006.004.007.005.008.005.007.006.007.006.007L4.06 1.715l-.006-.008L4.05 1.7l-.005-.007-.005-.007-.004-.007-.004-.007-.004-.007-.003-.006-.003-.007-.002-.007-.003-.006-.001-.007-.002-.006-.002-.006v-.006l-.002-.006v-.006l-.002-.006v-.012l-.001-.005v-.011z"/><path id="_539047032" class="fil1" d="m4.396 1.951 3.786 3.786.015.017.014.018.013.018.012.018.012.019.011.02.01.019.01.02.009.02.008.02.006.022.007.021.005.022.004.022.003.022.003.022.001.023v.023L4.54 2.317v-.023l-.002-.023-.003-.022-.003-.022-.004-.022-.006-.022-.006-.021-.007-.022-.008-.02-.008-.02-.01-.02-.01-.02-.011-.02-.012-.018-.012-.019-.014-.018-.014-.017z"/><path id="_539048064" class="fil1" d="m4.54 2.317 3.786 3.786v.028l-.001.005v.005L4.538 2.354V2.345l.001-.005V2.322z"/><path id="_539047656" class="fil1" d="m4.538 2.354 3.787 3.787.01.018.01.017.013.015L4.57 2.405 4.56 2.39l-.012-.017z"/><path id="_539048040" class="fil1" d="m4.845 2.55 3.786 3.786.005.006.002.005.002.006v.007l-.003.008-.004.008-.006.01-3.786-3.787.006-.01.004-.008.002-.007V2.56l-.004-.006z"/><path id="_539047464" class="fil1" d="m4.841 2.599 3.786 3.786.003.01.002.009-.001.008-.003.008-.004.006-.005.007-.008.005-.008.005-.01.005-.01.004-.012.003-.013.003-.014.003-.014.002-.015.002-.015.002h-.016l-.016.002h-.05l-.016.001h-.063l-.015-.001h-.038l-.012-.001h-.01L4.478 2.682h.075l.015.001h.113l.017-.002h.015l.016-.002.015-.002.014-.002.014-.003.012-.003.012-.003.011-.004.01-.005.008-.005.007-.006.006-.006.004-.007.003-.007V2.608z"/><path id="_539048160" class="fil1" d="m4.478 2.682 3.786 3.786H8.26l-.004-.001H8.25l-.005-.001-.005-.001h-.004l-.005-.001-.004-.001h-.005l-.004-.002h-.004l-.004-.002h-.004l-.004-.002h-.004l-.004-.002L4.408 2.67l.004.001.003.001.004.001.004.001.005.001.004.001h.004l.004.002h.005l.004.001h.005l.005.001.004.001h.005l.005.001z"/><path id="_539047968" class="fil1" d="m4.408 2.669 3.786 3.786-.003.004-.004.004-.003.004-.004.004-.004.004-.003.004-.004.004-.004.004-.004.004-.003.004-.004.003-.004.004-.004.004-.004.004-.004.003-.004.004-.004.004-.004.003-.004.004-.004.003-.005.004-.004.003-.004.004-.004.003-.005.003-.004.004-.005.003-.004.003-.004.003-.005.003-.005.004-.004.003-3.786-3.787.004-.003.005-.003.004-.003.005-.003.004-.003.005-.004.004-.003.004-.003.005-.004.004-.003.004-.004.004-.003.004-.004.005-.003.004-.004.004-.003.004-.004.004-.004.004-.003.004-.004.003-.004.004-.004.004-.003.004-.004.004-.004.003-.004.004-.004.004-.004.003-.004.004-.004.003-.004z"/><path id="_539047440" class="fil1" d="m4.279 2.784 3.786 3.787v.001L4.279 2.786v-.001z"/><path id="_637668520" class="fil1" d="M4.279 2.786c.348.347.369.897.098 1.292a.938.938 0 0 1-.352.321c-.125.07-.271.12-.438.143-.008.042-.036.076-.077.083.003.026 0 .06 0 .096-.003.052-.006.107.003.14l.035.004c.034.003.076.004.092.004h.01a.019.019 0 0 1 0 .038h-.02a.044.044 0 0 0-.015.026.019.019 0 0 1-.015.034.06.06 0 0 1-.008-.003.039.039 0 0 0-.02.017.187.187 0 0 0-.01.029.019.019 0 0 1-.027.025.248.248 0 0 1-.049-.079.169.169 0 0 1-.009-.082v-.003a.543.543 0 0 1-.005-.151.61.61 0 0 0 0-.098.095.095 0 0 1-.064-.068h-.061l-.005.03c-.009.063-.048.116-.108.125.004.037.001.084-.001.133-.003.07-.007.146.006.192a1.936 1.936 0 0 0 .173.01l.013.001a.026.026 0 0 1 0 .051H3.4a.06.06 0 0 0-.022.036.026.026 0 0 1-.02.046.083.083 0 0 1-.012-.004.053.053 0 0 0-.026.024.257.257 0 0 0-.014.04.025.025 0 0 1-.038.033.34.34 0 0 1-.066-.107.23.23 0 0 1-.013-.113v-.003a.743.743 0 0 1-.007-.208.835.835 0 0 0 0-.134.133.133 0 0 1-.092-.121l-.003-.047c-.78-.105-1.114-.732-1.114-1.172 0-.482.036-.547.11-.53.074.016.004.235.217.283.214.048.824-.143.956-.34.041-.062.078-.119.039-.22v-.002a.53.53 0 0 1-.058-.24c0-.289.235-.53.543-.577-.025-.116.074-.234.077-.18.002.043.005.102.068.165-.01-.11.077-.212.08-.162.003.054.006.13.124.21.24.087.41.298.41.544v.037c.103.205.376.141.302.245.043.108-.262.082-.363.083a.378.378 0 0 1-.07-.013.63.63 0 0 1-.13.115v.002z"/></g></g><path d="M3.413 0a3.413 3.413 0 1 1 0 6.827 3.413 3.413 0 0 1 0-6.827z" style="fill:none"/><path class="fil3" d="M3.507 4.605a.019.019 0 1 0-.036.009.482.482 0 0 1 0 .106c-.002.064-.006.133.014.172a.019.019 0 1 0 .034-.017c-.016-.03-.013-.094-.01-.154.002-.045.004-.088-.002-.116z"/><path class="fil4" d="M3.395 4.376c.061.03.154.031.216.003l-.022.155c-.007.05-.042.092-.092.092-.05 0-.089-.042-.092-.092l-.01-.158z"/><path class="fil5" d="M3.641 4.9s-.024.013-.026.035l-.001.022s-.032.005-.041.024c-.009.019-.013.041-.013.041l-.056-.062v-.062l.08-.014.057.015z"/><path class="fil3" d="M3.535 5.035a.019.019 0 0 0 .028-.025.211.211 0 0 1-.042-.066.136.136 0 0 1-.008-.045l.032.004.095.004h.01a.019.019 0 0 0 0-.038h-.01a1.413 1.413 0 0 1-.137-.01.019.019 0 0 0-.026.015l.018.003-.018-.003a.169.169 0 0 0 .01.082c.008.026.024.052.048.079z"/><path class="fil3" d="M3.513 4.873a.019.019 0 0 0-.03.022.28.28 0 0 0 .055.039.37.37 0 0 0 .062.033.019.019 0 0 0 .01-.036.378.378 0 0 1-.053-.029.326.326 0 0 1-.044-.03z"/><path class="fil6" d="M4.279 2.786c.603.601.224 1.815-.957 1.767-.95 0-1.349-.705-1.349-1.187 0-.482.036-.547.11-.53.074.016.004.235.217.283.214.048.824-.143.956-.34.041-.062.078-.119.039-.22-.04-.102 1.019-.324.984.227z"/><path class="fil4" d="M3.888 2.902c.359 0 .652-.263.652-.585 0-.322-.293-.585-.652-.585-.359 0-.651.263-.651.585 0 .322.292.585.651.585z"/><path class="fil7" d="M4.008 3.6c0 .206-.175.55-.706.55-.53 0-.884-.393-.884-.752 0-.36.123.07.438.07.316 0 .38-.245.678-.245.298 0 .474.143.474.377z"/><path d="M4.524 2.321c-.045-.044-.16.012-.183.178-.021.153.036.171.137.183.1-.001.406.025.363-.083.077-.11-.228-.034-.317-.278z" style="fill:#cd7c3a"/><path class="fil9" d="M4.339 2.52c.126.158.462.1.5.08-.027-.006-.358.04-.5-.08zM4.459 2.4c.01.008-.009.02-.025.042-.016.021-.022.045-.032.037-.01-.009-.008-.042.007-.064.016-.022.04-.024.05-.015z"/><path d="M4.221 2.367a.116.116 0 0 0 0-.232.116.116 0 0 0 0 .232z" style="fill:#fff"/><path d="M4.265 2.288a.053.053 0 0 0 0-.105.053.053 0 0 0 0 .105z" style="fill:#666"/><path class="fil6" d="M4 3.612c0 .185-.205.455-.703.455-.497 0-.855-.333-.855-.654s.115.067.411.067.391-.233.67-.233c.28 0 .478.156.478.365z"/><path class="fil7" d="M4.219 1.824c-.206-.097-.21-.196-.214-.26-.004-.065-.147.122-.043.251.104.13.643.43.257.009z"/><path class="fil6" d="M4.07 1.82c-.206-.096-.21-.195-.213-.26-.004-.065-.148.122-.043.252.104.13.643.43.257.008z"/><path class="fil7" d="M2.479 3.62c.06.166.35.338.628.212-.123.096-.517.146-.628-.211z"/><path d="M3.813 3.372c-.293-.048-.53.064-.683.133.121-.113.37-.289.683-.133z" style="fill:#ffe8a3"/><path class="fil7" d="M4.278 2.784c-.179.217-.851.22-.972-.2.257.397.78.34.972.2zM4.385 4.064c-.155.252-.472.49-1.063.49-.495 0-.84-.193-1.058-.445.563.482 1.649.528 2.121-.045z"/><path class="fil7" d="M2.612 3.795c.076.158.382.301.646.148-.113.108-.5.197-.646-.148zM2.426 3.354c.013.148.212.353.467.31-.122.052-.455.006-.467-.31z"/><path class="fil3" d="M3.23 4.683a.026.026 0 1 0-.05.011c.008.032.005.087.002.146-.004.088-.009.183.018.236a.026.026 0 0 0 .046-.023c-.021-.042-.017-.13-.013-.21.003-.063.006-.122-.003-.16z"/><path class="fil4" d="M3.076 4.369a.38.38 0 0 0 .296.004l-.03.212c-.01.068-.056.126-.126.126-.069 0-.121-.057-.126-.126l-.014-.216z"/><path class="fil5" d="M3.414 5.086s-.034.019-.036.049l-.002.03s-.044.007-.056.033c-.012.026-.018.057-.018.057l-.076-.086.001-.084.11-.02.077.02z"/><path class="fil3" d="M3.268 5.271a.025.025 0 0 0 .038-.033.29.29 0 0 1-.057-.091.186.186 0 0 1-.011-.061 1.995 1.995 0 0 0 .174.01h.013a.026.026 0 0 0 0-.051h-.013a1.936 1.936 0 0 1-.187-.013.026.026 0 0 0-.036.02l.025.003-.025-.004a.23.23 0 0 0 .013.113.34.34 0 0 0 .066.107z"/><path class="fil3" d="M3.239 5.05a.026.026 0 0 0-.041.03c.007.01.04.033.074.053a.506.506 0 0 0 .086.045.025.025 0 0 0 .012-.05.518.518 0 0 1-.071-.038.447.447 0 0 1-.06-.04z"/></g></svg>