<svg xmlns="http://www.w3.org/2000/svg" xml:space="preserve" width="655.359" height="655.359" style="shape-rendering:geometricPrecision;text-rendering:geometricPrecision;image-rendering:optimizeQuality;fill-rule:evenodd;clip-rule:evenodd" viewBox="0 0 6.827 6.827"><defs><clipPath id="id0"><path d="M3.413 0a3.413 3.413 0 1 1 0 6.827 3.413 3.413 0 0 1 0-6.827z"/></clipPath><style>.fil4{fill:#4d3c2e}.fil3{fill:#926a4c}.fil1{fill:#f48fb1}</style></defs><g id="Layer_x0020_1"><path d="M3.413 0a3.413 3.413 0 1 1 0 6.827 3.413 3.413 0 0 1 0-6.827z" style="fill:#f8bbd0"/><g style="clip-path:url(#id0)"><g id="_637661752"><path id="_4627595761" class="fil1" d="m5.202 2.51 3.786 3.786.01.012.01.013.008.013.008.013.007.013.007.014.006.014.005.015.005.015L5.268 2.63l-.005-.014-.005-.015-.006-.014-.007-.014-.007-.013-.008-.014-.01-.013-.008-.012z"/><path id="_462759888" class="fil1" d="m5.268 2.631 3.786 3.787.003.012.003.012.002.012.002.012.001.012v.012l.001.012v.024l-.001.011-.001.012-.002.01-.002.012-.002.011-.003.01-.003.011-.003.01-.004.011-.004.01-.004.01-.004.009-.005.01-.005.008-.005.008-.005.009-.005.007-.006.008-.006.007-.006.007-.006.006-.006.006-.006.006-3.786-3.786.006-.006.006-.006.006-.006.006-.007.006-.007.005-.008.006-.008.005-.008.005-.008.005-.01.005-.008.004-.01.004-.01.004-.01.004-.01.003-.01.003-.01.002-.011.003-.011.002-.011.001-.012.002-.011v-.023l.001-.012v-.012l-.001-.012-.002-.012-.001-.012-.002-.012-.003-.012z"/><path id="_462761304" class="fil1" d="m5.186 2.949 3.786 3.786-.003.003-.003.003-.003.003-.002.004-.002.003-.002.004-.001.004-.002.004v.008l-.001.004V6.784l.001.004.001.004.002.004L5.17 3.01l-.002-.004-.001-.004v-.004l-.001-.005v-.012l.001-.004.001-.004.002-.004.001-.004.003-.004.002-.003.003-.003.002-.004z"/><path id="_462761328" class="fil1" d="m5.17 3.01 3.787 3.786v.002l.001.002.001.002.001.004.002.003.001.005.002.005.001.005.002.006.002.007.001.006.002.007.002.008.001.008.002.008v.008l.002.01V6.9l.002.009V6.956l-.002.01-.002.008-.002.01-.002.009-.003.009-.003.009-.004.009-3.787-3.787.004-.008.004-.01.003-.008.002-.01.002-.009.002-.01V3.17l.002-.01V3.124l-.001-.01-.001-.008-.001-.009-.002-.008-.001-.008-.002-.008-.001-.008-.002-.007-.002-.007-.001-.006-.002-.006-.002-.005-.001-.005-.002-.005V3.02l-.002-.003-.001-.002v-.002L5.17 3.01z"/><path id="_462761544" class="fil1" d="M5.177 3.233 8.964 7.02l-.004.007-.005.008-.005.007-.005.007-.006.006-.006.006-.007.006-.007.006-.008.005-.008.005-.009.005-.008.004-.01.004-.01.004-.01.003-.01.003L5.058 3.32l.01-.003.011-.004.01-.003.01-.004.008-.005.009-.004.008-.005.007-.005.008-.006.006-.006.007-.006.005-.006.006-.007.005-.007.004-.008z"/><path id="_462761400" class="fil1" d="m5.059 3.32 3.786 3.786-.004.001-.004.002-.003.002-.004.002-.003.002-.003.002-.003.003-.003.003-.002.003-.002.003-.002.004-.002.003-.001.004-.002.004v.004l-.001.004L5.02 3.365v-.004l.001-.004.001-.003.002-.004.001-.004.002-.003.003-.003.002-.003.003-.003.003-.003.003-.002.003-.003.004-.002.003-.001.004-.002z"/><path id="_462761184" class="fil1" d="m5.02 3.365 3.786 3.787v.003l-.001.002v.003l-.001.004-.001.004-.001.004-.002.005-.001.005-.002.005-.002.006-.002.006-.002.007-.003.006-.002.007-.004.007-.003.007-.004.008-.004.007-.004.007-.005.007-.005.008-.005.007-.006.007-.006.007-.007.007-.007.006-.007.007-.008.006-.008.005-.01.006L4.909 3.54l.008-.005.009-.006.007-.006.008-.006.007-.007.006-.006.006-.007.006-.007.006-.008.005-.007.004-.007.005-.007.004-.008.004-.007.003-.007L5 3.433l.003-.007.003-.006.002-.007.002-.006.002-.006.002-.005.001-.006.001-.004.001-.005.001-.004.001-.003v-.003l.001-.002v-.003z"/><path id="_462761424" class="fil1" d="m4.908 3.541 3.786 3.787-.007.004-.008.004-.007.003-.008.003-.008.003-.008.003-.009.002-.008.002-.009.002-.009.001-.009.001-.01.001h-.009l-.01.001h-.03l-.01-.001-.01-.001-.01-.002-.012-.001-.01-.002-.012-.002-.011-.003-.012-.003-.012-.003-.012-.003-.012-.003-.012-.004-.013-.004-.012-.005-.013-.005L4.586 3.53l.013.005.012.004.013.004.012.004.012.004.012.003.012.003.011.003.012.002.01.003.012.001.01.002.012.001.01.002h.02l.01.001h.02l.01-.001h.009l.009-.002.009-.002.009-.001.008-.002.008-.003.009-.002.008-.003.007-.003.008-.004.007-.003z"/><path id="_462761640" class="fil1" d="m4.586 3.53 3.786 3.786-.007.054-.01.053-.011.052-.015.052-.017.05-.019.049-.021.048-.023.047-.026.046-.028.044-.03.043-.03.042-.034.04-.035.04-.037.037-.039.035-.04.034-.042.032-.043.03-.045.029-.046.026-.047.025-.049.022-.05.02-.05.019-.052.016-.053.014-.054.01-.055.01-.056.006-.056.004-.057.001L3.409 4.56l.057-.001.056-.004.056-.006.054-.01.054-.01.053-.014.052-.016.051-.018.05-.02.049-.023.047-.025.046-.026.045-.029.043-.03.042-.032.04-.034.038-.036.037-.037.036-.039.033-.04.032-.042.03-.043.027-.044.025-.046.024-.047.021-.048.02-.05.016-.05.014-.05.012-.053.01-.053z"/><path id="_462761136" class="fil1" d="m1.789 3.331 3.786 3.786-.003-.002-.003-.002-.004-.002-.003-.002-.004-.002h-.004L1.768 3.32l.004.001.004.002.003.001.004.002.003.003z"/><path id="_462761760" class="fil1" d="m1.92 3.541 3.785 3.787-.008-.006-.009-.005-.007-.006-.008-.007-3.786-3.786.007.006.008.006.008.006z"/><path id="_462761976" class="fil1" d="m1.768 3.32 3.786 3.786-.01-.003-.011-.003-.01-.004-.01-.004-.008-.004-.009-.005-.008-.005-.007-.005-.008-.006-.006-.006L1.68 3.275l.007.006.007.006.008.005.008.005.008.004.01.005.009.004.01.003.01.004z"/><path id="_462761736" class="fil1" d="m1.644 2.951 3.787 3.787-.004-.003-3.786-3.786z"/><path id="_462761688" class="fil1" d="m1.641 2.949 3.786 3.786-.006-.006-3.786-3.786z"/><path id="_462729552" class="fil1" d="M2.232 3.534 6.018 7.32l-.012.004-.012.004-.013.004-.011.004-.012.003-.012.003-.011.003-.011.003-.011.002-.011.002-.011.002-.01.001-.011.001-.01.001h-.01l-.01.001H5.8l-.008-.002-.009-.001-.009-.002-.008-.001-.008-.002-.009-.003-.008-.002-.007-.003-.008-.003-.007-.004-.008-.003-.007-.004L1.92 3.54l.007.004.007.004.008.003.007.004.008.002.008.003.008.002.009.002.008.002.009.002h.009l.009.002h.019l.009.001h.02l.01-.001.01-.001.01-.001.01-.002.011-.001.011-.002.011-.003.012-.002.011-.003.012-.003.011-.003.012-.004.012-.004.013-.004z"/><path id="_462729816" class="fil1" d="m3.409 4.56 3.786 3.786h-.057l-.056-.005-.056-.006-.054-.009-.054-.011-.053-.014-.052-.016-.05-.018-.05-.02-.049-.023-.047-.024-.046-.026-.045-.029-.043-.03-.042-.032-.04-.034-3.786-3.786.04.034.042.032.043.03.044.028.046.027.048.024.048.022.05.02.05.019.053.016.053.013.053.012.055.009.056.006.056.004z"/><path id="_637662208" class="fil1" d="M4.082 2.47c.078-.074.283-.207.722-.143.253.037.418.145.464.304a.32.32 0 0 1-.082.318.054.054 0 0 0-.015.061c0 .001.052.132.006.223-.02.043-.06.071-.118.087a.054.054 0 0 0-.04.045c0 .002-.016.12-.111.176-.076.045-.185.04-.322-.01-.06.577-.566 1.03-1.177 1.03-.61 0-1.115-.451-1.177-1.027-.133.048-.239.051-.313.007-.095-.055-.112-.174-.112-.176a.054.054 0 0 0-.04-.045c-.058-.016-.097-.044-.118-.087-.045-.091.006-.222.007-.223a.054.054 0 0 0-.015-.061.32.32 0 0 1-.082-.318c.046-.159.21-.267.464-.304.432-.063.637.065.718.14.19-.127.42-.2.668-.2.25 0 .482.075.673.204z"/></g></g><path d="M3.413 0a3.413 3.413 0 1 1 0 6.827 3.413 3.413 0 0 1 0-6.827z" style="fill:none"/><path class="fil3" d="M4.804 2.327c-.453-.066-.658.078-.73.15.059.044.114.092.164.145.088-.07.294-.178.576.033.134.1.177.26.116.426-.053.142-.187.281-.351.296a1.226 1.226 0 0 1 .003.152c.14.053.249.057.326.012.095-.055.111-.174.112-.176a.054.054 0 0 1 .039-.045c.059-.016.098-.044.118-.087.046-.091-.006-.222-.006-.223a.054.054 0 0 1 .015-.061.32.32 0 0 0 .082-.318c-.046-.159-.21-.267-.464-.304zM2.023 2.327c.453-.066.657.078.73.15a1.288 1.288 0 0 0-.164.145c-.088-.07-.294-.178-.576.033-.134.1-.178.26-.116.426.053.142.187.281.35.296a1.226 1.226 0 0 0-.002.152c-.14.053-.25.057-.326.012-.095-.055-.112-.174-.112-.176a.054.054 0 0 0-.04-.045c-.058-.016-.097-.044-.118-.087-.045-.091.006-.222.007-.223a.054.054 0 0 0-.015-.061.32.32 0 0 1-.082-.318c.046-.159.21-.267.464-.304z"/><path class="fil4" d="M4.933 3.086c.061-.172.02-.337-.113-.44-.289-.227-.494-.124-.588-.046.187.222.311.5.347.804.147-.016.293-.144.354-.318zM1.893 3.086c-.06-.172-.019-.337.113-.44.29-.227.494-.124.588-.046a1.526 1.526 0 0 0-.347.804c-.146-.016-.292-.144-.354-.318z"/><path d="M4.042 3.666a.101.101 0 1 1 0-.203.101.101 0 0 1 0 .203zm-1.254 0a.101.101 0 1 1 0-.203.101.101 0 0 1 0 .203zm.62-1.4c-.652 0-1.183.515-1.183 1.147 0 .633.531 1.147 1.184 1.147.652 0 1.183-.514 1.183-1.147 0-.632-.53-1.147-1.183-1.147z" style="fill:#c49a70"/><path class="fil4" d="M2.788 3.463a.101.101 0 1 0 0 .203.101.101 0 0 0 0-.203zM4.042 3.463a.101.101 0 1 0 0 .203.101.101 0 0 0 0-.203zM3.15 3.961c-.025-.102-.028-.353.073-.498a.258.258 0 0 1 .21-.114c.097 0 .156.08.189.146.082.168.078.41.017.49-.04.051-.128.082-.234.082-.129 0-.241-.046-.255-.106zm.616.183c-.17.076-.25.062-.286.037a.098.098 0 0 1-.04-.061c.108-.007.195-.043.241-.103.08-.104.075-.37-.011-.546-.057-.115-.138-.175-.237-.175a.31.31 0 0 0-.254.137c-.117.168-.105.441-.082.54.023.095.158.142.283.147a.098.098 0 0 1-.04.061c-.037.025-.117.039-.286-.037a.027.027 0 1 0-.022.05c.092.04.169.06.231.06.043 0 .079-.01.107-.028a.142.142 0 0 0 .04-.04c.01.014.022.028.04.04.028.019.063.028.106.028.063 0 .14-.02.231-.06a.027.027 0 1 0-.021-.05z"/><path class="fil3" d="M3.643 3.99c.063-.081.068-.328-.017-.5-.033-.067-.094-.148-.192-.148l-.022.001a.263.263 0 0 0-.193.115c-.103.148-.1.404-.075.508.015.061.13.109.261.109.109 0 .198-.032.238-.085z"/></g></svg>