<svg xmlns="http://www.w3.org/2000/svg" xml:space="preserve" width="655.359" height="655.359" style="shape-rendering:geometricPrecision;text-rendering:geometricPrecision;image-rendering:optimizeQuality;fill-rule:evenodd;clip-rule:evenodd" viewBox="0 0 6.827 6.827"><defs><clipPath id="id0"><path d="M3.413 0a3.413 3.413 0 1 1 0 6.827 3.413 3.413 0 0 1 0-6.827z"/></clipPath><style>.fil4{fill:#2d3133}.fil3{fill:#353b3d}.fil9{fill:#3c3f40}.fil1{fill:#a1887f}.fil5{fill:#f9ac6b}</style></defs><g id="Layer_x0020_1"><path d="M3.413 0a3.413 3.413 0 1 1 0 6.827 3.413 3.413 0 0 1 0-6.827z" style="fill:#bcaaa4"/><g style="clip-path:url(#id0)"><g id="_637659976"><path id="_4421214801" class="fil1" d="M4.064 2.725 7.85 6.511l.007.017.007.019.009.02.009.02.01.023.01.024.011.024.012.025.013.026.014.027.014.028.015.028.016.028.017.03.017.029.018.03.02.029.02.03.02.03.021.03.023.029.023.029.024.029.025.028.025.029-3.786-3.787-.026-.028-.024-.028-.024-.03-.023-.029-.023-.03-.021-.029-.02-.03-.02-.03-.02-.03-.018-.029-.018-.029-.016-.029-.016-.029-.015-.028-.015-.027-.013-.027-.013-.026-.012-.025-.011-.025-.01-.023-.01-.022-.01-.022-.008-.02-.007-.018z"/><path id="_442121528" class="fil1" d="m4.79 3.66 3.786 3.786.019.021.015.02.011.02.008.018.004.017v.015l-.002.015-.005.013-.008.013-.01.01-.013.011-.014.01-.016.007-.018.008-.019.006-.02.005-.021.005-.022.003-.022.003-.022.001-.023.001h-.044l-.021-.002-.02-.002-.02-.003-.018-.004-.016-.004-3.787-3.786.017.004.018.004.02.003.02.002.02.001.023.001h.022l.022-.001.023-.002.022-.002.022-.004.02-.004.02-.005.02-.007.018-.007.016-.008.014-.01.013-.01.01-.01.008-.013.005-.013.002-.015v-.015l-.005-.017-.007-.018-.011-.02-.015-.02z"/><path id="_442122416" class="fil1" d="M4.472 3.867 8.26 7.653l-.004-.001-.005-.001-.004-.002-.004-.001-.004-.001-.004-.002-.004-.001-.004-.002-.004-.001-.004-.002-.004-.001-.004-.002-.004-.002-.004-.001-.004-.002-.004-.002-.004-.002-.004-.002-.003-.002-.004-.001-.004-.002-.004-.003-.004-.002-.004-.002-.004-.002-.004-.002-.004-.002-.004-.003-.004-.002-.004-.003-.003-.002-.004-.003-3.786-3.786.003.003.004.002.004.003.004.002.004.002.004.003.004.002.004.002.004.002.003.002.004.002.004.002.004.002.004.002.004.002.004.002.004.002.004.001.004.002.004.002.004.001.004.002.004.001.004.002.004.001.004.002.004.001.004.002.004.001.004.001.004.001z"/><path id="_442121792" class="fil1" d="m4.346 3.808 3.786 3.786.003.016.003.016.003.015.002.016.003.015.002.016.002.015.003.015.002.016.001.015.002.015.002.015.001.015.001.014.001.015.001.015.001.014v.015l.001.014v.071l-.001.014-.001.014-.001.013-.002.014-.001.013-.002.014-.002.013-.002.013-3.786-3.786.002-.013.002-.013.002-.014.001-.013.001-.014.001-.014.001-.013.001-.014v-.028l.001-.014V4.08l-.001-.015v-.015l-.002-.014v-.015l-.002-.015-.002-.015-.001-.015-.002-.015-.002-.015-.002-.015-.002-.015-.002-.015-.003-.016-.002-.015-.003-.016-.003-.015-.002-.016z"/><path id="_442122632" class="fil1" d="m4.37 4.272 3.787 3.786v.002l-.001.004-.001.008-.002.01-.002.013-.002.015-.003.018-.004.02-.004.02-.005.024-.005.025-.006.026-.007.027-.007.029-.008.03-.008.03-.01.03-.01.032-.01.032-.011.031-.012.032-.013.032-.014.031-.014.03-.015.03-.016.03-.017.028-.018.027-.018.025-.02.024-.02.023-.021.02L4.066 5.03l.022-.02.02-.023.02-.024.018-.026.018-.026.017-.029.016-.029.015-.03.014-.03.014-.032.012-.031.012-.032.012-.032.01-.031.01-.032.01-.03.008-.03.008-.03.007-.029.006-.027.006-.027.006-.024.004-.024.005-.021.003-.02.003-.017.003-.015.002-.013.002-.01v-.008l.001-.005z"/><path id="_442122536" class="fil1" d="M4.163 5.085 7.95 8.87l.007.007.007.007.006.007.005.008.005.007.004.007.004.007.004.007.003.006.002.007.002.006.002.006.002.005.001.005.001.005v.004l.001.004v.004l.001.003v.005L4.22 5.202V5.19l-.001-.004-.001-.004-.001-.005-.002-.005-.001-.006-.002-.006-.002-.006-.003-.006-.003-.007-.003-.007-.004-.006-.004-.008-.005-.007-.005-.007-.006-.007-.007-.007z"/><path id="_442123160" class="fil1" d="m4.22 5.202 3.786 3.786-.005.004-.005.003-.006.003-.005.003-.005.002-.006.003-.005.002-.005.002-.005.001-.005.001-.005.001-.005.001-.005.001h-.032l-.014-.001-.012-.003-.009-.003-.007-.004L7.859 9l-.005-.004-.004-.003-.003-.003-.004-.002h-.008l-.006.002-.007.005-.01.006-.011.009-3.786-3.787.011-.008.01-.007.007-.004.006-.002h.008l.004.002.003.003.004.003.005.004.005.004.008.003.009.004.012.002.014.002H4.152l.005-.001h.005l.005-.002.006-.001.005-.002.005-.002.005-.002.005-.002.006-.002.005-.003.005-.003.006-.004z"/><path id="_442123184" class="fil1" d="m2.478 3.812 3.786 3.786-.008.005-.007.005-.008.004-.007.004-.008.004-.008.004-.008.004-.007.003-.008.004-.008.003-.008.003-.008.003-.007.002-.008.003-.008.003-.008.002-3.786-3.786.008-.003.007-.002.008-.003.008-.003.008-.002.008-.004.008-.003.007-.003.008-.004.008-.003.008-.004.007-.004.008-.004.008-.005.007-.004z"/><path id="_442122872" class="fil1" d="M2.354 3.868 6.14 7.654l-.017.004-.018.004-.019.002-.02.002-.022.002H6l-.022-.001-.023-.002-.022-.003-.021-.003-.021-.005-.02-.005-.02-.007-.017-.007-.016-.008-.015-.01-.012-.01-3.786-3.786.012.01.014.01.017.008.017.007.02.007.02.005.02.004.022.004.022.003.023.002h.022l.022.001h.022l.021-.002.02-.002.02-.003.018-.003z"/><path id="_442122896" class="fil1" d="m3.58 4.928 3.786 3.786-.004.001-.004.001-.005.001-.004.001-.005.001-.004.001-.005.001-.005.001-.004.001-.005.001h-.005l-.005.002h-.005l-.006.001h-.005l-.005.001-.005.001h-.006l-.005.001h-.005l-.006.001h-.006l-.005.001H7.24l-.005.001H7.149l-.007-.001h-.006l-.007-.001-.007-.001h-.007l-.006-.002h-.007l-.006-.001-.006-.001-.007-.001-.006-.001-.006-.001-.006-.001-.005-.002h-.006l-.006-.002-.005-.001-.006-.002-.005-.001-.005-.002-.005-.001-.005-.002-.005-.001-.004-.002-.005-.002-3.786-3.786.004.002.005.001.005.002.005.002.005.001.005.001.005.002.006.001.005.002h.006l.005.002.006.001.006.001.006.002h.006l.006.002h.007l.006.001.007.001h.006l.007.002H3.349l.007.001h.007l.007.001h.014l.007.001H3.46l.006-.001h.005l.006-.001h.005l.006-.001h.005l.005-.001h.006l.005-.001.005-.001h.005l.005-.002h.005l.005-.001.005-.001.005-.001.005-.001h.005l.004-.002.005-.001.004-.001.005-.001.004-.001z"/><path id="_442122824" class="fil1" d="m3.831 5.204 3.787 3.787-.005-.004-.003-.003-.004-.003-.003-.002-.003-.001-.003-.001h-.01l-.003.001-.002.001-.002.002-.003.001-.003.002-.002.002-.003.002-.003.002-.004.002-.003.003-.004.002-.004.002L7.546 9l-.005.002-.005.002-.006.001-.007.002-.007.001-.007.001h-.008l-.009.001h-.02l-.008-.002-.01-.001-.007-.002-.008-.002-.007-.002L7.425 9l-.006-.002-.005-.003-.005-.002-.003-.001-.003-.002L7.4 8.99H7.4v-.001L3.612 5.202h.002l.002.002.003.001.004.002.005.002.005.002.006.003.006.002.008.002.007.002.009.002.008.001.01.001h.036l.007-.001.007-.001.006-.002.006-.001.006-.002.005-.002.004-.002.005-.003.003-.002.004-.002.003-.002.004-.002.002-.002.003-.002.003-.002.002-.002.003-.001.002-.001.002-.001h.013l.004.002.003.002.003.003.004.003z"/><path id="_442123616" class="fil1" d="m3.68 5.046 3.786 3.786-.006-.003-.005-.005-.006-.005-.006-.006-3.787-3.786.007.006.006.005.005.004z"/><path id="_442123328" class="fil1" d="m3.707 5.062 3.787 3.786-.004-.001-.003-.002-.004-.002-.003-.002-.004-.002-.003-.003-.004-.002-.003-.002-3.787-3.786.004.002.004.002.003.002.003.002.004.002.003.002.004.002z"/><path id="_442123496" class="fil1" d="M4.015 5.223 7.8 9.01l-.007.005-.008.006-.007.005-.008.005-.007.005-.007.005-.007.004-.007.004-.006.004-.006.003-.005.003-.004.003-.003.002-.003.001-.002.001L3.928 5.28l.002-.001.002-.002.004-.002.004-.002.005-.003.006-.003.006-.004.006-.004.007-.005.008-.004.007-.005.008-.005L4 5.234l.007-.005z"/><path id="_442123928" class="fil1" d="m3.217 4.918 3.786 3.786-.002.005-.003.005-.003.005-.003.005-.003.005-.003.005-.003.005-.004.005-.003.005-.003.005-.004.004-.003.005-.004.005-.003.004-.004.005-.003.004-.004.004-.004.005-.003.004-.004.004-.003.003-.004.004-.003.004-.004.003-.003.003-.003.003-.003.003-.004.003-.003.002-.003.002-.003.002-.002.002-3.787-3.786.003-.002.003-.002.003-.002.003-.003.003-.002.004-.003.003-.003.003-.003.004-.004.003-.003.004-.004.003-.004.004-.004.003-.004L3.162 5l.003-.004.004-.005.003-.004.004-.005.003-.004.004-.005.003-.005.004-.005.003-.004.003-.005.004-.005.003-.005.003-.005.003-.005.003-.005.002-.005z"/><path id="_442123376" class="fil1" d="M3.112 5.046 6.9 8.832l-.002.001h-.001l-.002.002h-.001l-.001.002H6.89l-.001.001-.002.001-3.786-3.786.001-.001h.002l.001-.002h.002l.001-.001.002-.001.001-.001z"/><path id="_442123784" class="fil1" d="m3.141 5.081 3.787 3.787.006.006.006.006.006.006.005.006.005.007.004.006.004.006.003.006.003.006.003.006.003.006.002.005.002.006.002.005.001.005.001.004.001.005.001.004v.004l.001.003v.003l.001.003v.006L3.202 5.202V5.19L3.2 5.186 3.2 5.183v-.005l-.002-.004-.001-.005-.002-.004-.001-.006-.002-.005-.002-.006-.003-.005-.003-.006-.003-.006-.004-.006-.003-.006-.005-.007-.004-.006-.006-.006-.005-.006-.006-.006z"/><path id="_442123568" class="fil1" d="m3.202 5.202 3.786 3.786-.005.004-.005.003-.006.003-.005.003-.005.002-.006.003-.005.002-.005.002-.005.001-.005.001-.005.001-.005.001-.005.001h-.032l-.014-.001-.012-.003-.009-.003-.007-.004L6.84 9l-.005-.004-.004-.003-.003-.003-.004-.002h-.008l-.006.002-.007.005-.01.006-.011.009-3.786-3.787.011-.008.01-.007.007-.004.006-.002h.008l.004.002.003.003.004.003.005.004.005.004.008.003.009.004.012.002.014.002h.032l.004-.001h.005l.005-.002.006-.001.005-.002.005-.002.005-.002.005-.002.006-.002.005-.003.005-.003.006-.004z"/><path id="_442124840" class="fil1" d="M2.997 5.223 6.783 9.01l-.007.005-.008.006-.007.005-.008.005-.007.005-.007.005-.007.004-.007.004-.006.004-.006.003-.005.003-.004.003-.003.002-.003.001-.002.001L2.91 5.28l.002-.001.002-.002.004-.002.004-.002.005-.003.006-.003.006-.004.007-.004.006-.005.008-.004.007-.005.008-.005.007-.006.007-.005z"/><path id="_442127960" class="fil1" d="m2.91 5.28 3.786 3.786-.004-.002-.004-.002-.004-.002-.005-.003-.004-.003-.004-.003-.005-.003-.004-.003-.004-.003-.005-.004-.004-.003-.004-.004-.004-.003-.005-.004-.004-.003-3.786-3.786.004.003.004.004.004.003.005.004.004.003.004.003.005.004.004.003.004.003.005.003.004.003.004.002.004.003.005.002z"/><path id="_442128152" class="fil1" d="m2.81 5.2 3.786 3.787-.004-.003-.004-.003-.003-.002-.003-.001-.003-.001h-.01l-.003.001-.002.001-.002.002-.003.001-.003.002-.002.002-.003.002-.003.002-.004.002-.003.003-.004.002-.004.002L6.528 9l-.005.002-.005.002-.006.001-.007.002-.006.001-.008.001h-.008l-.009.001h-.02l-.008-.002-.01-.001-.007-.002-.008-.002-.007-.002L6.407 9l-.006-.002-.005-.003-.005-.002-.003-.001-.003-.002-.003-.001h-.001v-.001L2.594 5.202h.002l.002.002.003.001.004.002.005.002.005.002.006.003.006.002.008.002.007.002.009.002.008.001.01.001h.036l.007-.001.007-.001.007-.002.005-.001.006-.002.005-.002.004-.002.005-.003.004-.002.003-.002.003-.002.004-.002.002-.002.003-.002.003-.002.002-.002.003-.001.002-.001.003-.001H2.796l.003.002.003.002.003.003z"/><path id="_442128440" class="fil1" d="m3.928 5.28 3.786 3.786-.004-.002-.004-.002L7.7 9.06l-.004-.003-.004-.003-.004-.003-.005-.003-.004-.003-.004-.003-.005-.004-.004-.003-.004-.004-.004-.003-.005-.004-.004-.003-.004-.004L3.86 5.231l.004.004.004.003.004.004.004.003.005.004.004.003.004.003.005.004.004.003.004.003.005.003.004.003.004.002.004.003.004.002z"/><path id="_442127936" class="fil1" d="m3.86 5.23 3.786 3.787-.003-.003-.003-.003-.003-.003L3.85 5.222l.003.003.004.003z"/><path id="_442129232" class="fil1" d="M3.886 1.714 7.672 5.5l.017.02.016.021.014.022.013.022.012.023.011.024.01.025.008.025.007.026.007.027.005.027.004.028.003.028.002.028.002.03v.029L4.017 2.119v-.03l-.002-.029-.002-.028-.003-.029-.005-.027L4 1.949l-.006-.027-.007-.026-.009-.025-.01-.025-.01-.024-.012-.023-.013-.023-.014-.021-.016-.02z"/><path id="_442129160" class="fil1" d="m4.017 2.119 3.786 3.786v.019L4.017 2.137v-.016z"/><path id="_442128728" class="fil1" d="m4.017 2.137 3.786 3.787v.014l.002.016v.016l.001.016.001.017.001.017.001.018.002.018v.018l.002.019.001.019.002.02v.018l.002.02.002.02.001.02.002.02.001.02.002.02.001.019.002.02.002.02.002.019.001.02.002.018.002.02.002.018.002.018.002.018.002.017.002.018.002.016-3.786-3.786-.002-.017-.002-.017-.002-.017-.002-.018-.002-.019-.002-.018L4.05 2.6l-.002-.02-.002-.018-.001-.02-.002-.02-.002-.02-.001-.02-.002-.019-.002-.02-.001-.02-.002-.02-.001-.02-.001-.019-.002-.02-.001-.018-.001-.02-.002-.018V2.27l-.002-.018v-.018l-.002-.017V2.2l-.002-.017v-.016l-.002-.015z"/><path id="_637660072" class="fil1" d="M4.064 2.725c.068.175.262.605.602.835.434.293-.026.356-.194.307a.471.471 0 0 1-.126-.059c.033.168.046.326.022.466l.003-.002s-.073.549-.305.758c.154.05.154.172.154.172a.14.14 0 0 1-.082.028c-.101 0-.055-.06-.123-.007a.737.737 0 0 1-.087.057.326.326 0 0 1-.068-.05.756.756 0 0 1-.024-.021c-.05-.05-.034.014-.13.016-.054 0-.094-.023-.094-.023 0-.055.037-.105.095-.14a.563.563 0 0 1-.028-.016.386.386 0 0 1-.099-.118.649.649 0 0 1-.167.02.584.584 0 0 1-.196-.03.395.395 0 0 1-.116.135.183.183 0 0 1 .101.149.14.14 0 0 1-.082.028c-.101 0-.055-.06-.123-.007a.737.737 0 0 1-.087.057.326.326 0 0 1-.068-.05.76.76 0 0 1-.024-.021c-.05-.05-.034.014-.13.016-.054 0-.094-.023-.094-.023 0-.07.06-.131.147-.165-.227-.204-.282-.765-.282-.765l.002.002a1.262 1.262 0 0 1 .017-.462.472.472 0 0 1-.124.056c-.168.048-.628-.018-.192-.308.327-.218.521-.62.598-.807a6.863 6.863 0 0 0 .049-.634c.008-.316.09-.572.604-.572.456 0 .604.256.604.572a9.223 9.223 0 0 0 .047.606z"/></g></g><path d="M3.413 0a3.413 3.413 0 1 1 0 6.827 3.413 3.413 0 0 1 0-6.827z" style="fill:none"/><ellipse class="fil3" cx="3.413" cy="4.864" rx=".258" ry=".083"/><path class="fil4" d="M4.036 2.648s.197.619.63.912c.434.293-.026.356-.194.307-.198-.06-.39-.244-.446-.808l.01-.41zM2.799 2.652s-.202.618-.637.908c-.436.29.024.356.192.308.199-.058.392-.241.452-.805l-.007-.41z"/><path class="fil3" d="M2.459 4.272s.11 1.113.653.774a.402.402 0 0 0 .115-.148l-.768-.626zM4.37 4.272s-.146 1.113-.69.774a.402.402 0 0 1-.115-.148l.806-.626z"/><path class="fil5" d="M3.202 5.202s0-.192-.304-.192c-.168 0-.304.086-.304.192 0 0 .04.024.094.023.096-.002.08-.065.13-.016a.76.76 0 0 0 .024.022.326.326 0 0 0 .068.049s.049-.027.087-.057c.068-.053.022.007.123.007a.14.14 0 0 0 .082-.028zM4.22 5.202s0-.192-.304-.192c-.168 0-.304.086-.304.192 0 0 .04.024.094.023.096-.002.08-.065.13-.016a.756.756 0 0 0 .024.022.326.326 0 0 0 .068.049s.049-.027.087-.057c.068-.053.022.007.123.007a.14.14 0 0 0 .082-.028z"/><path class="fil3" d="M4.017 2.119c0 .315-.27.572-.604.572-.334 0-.617-.058-.604-.572.008-.316.09-.572.604-.572.456 0 .604.256.604.572z"/><path class="fil3" d="M4.01 2.008s.029.656.077.85c.141.567.401 1.15.244 1.548-.157.397-.053.446-.47.504l-.22-.001c-.799.04-.976-.106-1.141-.503-.165-.398.092-.98.24-1.549.05-.193.072-.758.072-.758l1.198-.091z"/><path d="M3.928 4.798c.133-.106.2-.193.237-.501.036-.308-.022-.453-.06-.634a35.51 35.51 0 0 0-.21-.94c-.026-.087-.147-.102-.147-.102.186-.14.204-.335.18-.555-.043-.41-.48-.438-.51 0h-.005c-.024-.445-.472-.402-.515 0-.025.235-.008.408.187.555 0 0-.125.015-.154.105-.032.102-.17.756-.209.937-.038.181-.096.326-.06.634.037.308.104.395.236.501.133.106.355.014.503.014.16 0 .399.09.527-.014z" style="fill:#f9fcfe"/><path d="m3.414 2.222-.108.058s-.086.03.108.315c.193-.285.107-.315.107-.315l-.107-.058z" style="fill:#d88d56"/><path class="fil5" d="m3.413 2.214-.108.043s-.086.023.108.237v-.28z"/><path d="m3.413 2.214.107.043s.086.023-.107.237v-.28z" style="fill:#fb9f49"/><path class="fil9" d="M3.22 2.212a.014.014 0 0 1-.015-.015.045.045 0 0 0-.09 0 .014.014 0 0 1-.029 0 .074.074 0 0 1 .148 0 .014.014 0 0 1-.015.015zM3.696 2.212a.014.014 0 0 1-.015-.015.045.045 0 0 0-.09 0 .014.014 0 1 1-.028 0 .074.074 0 0 1 .147 0 .014.014 0 0 1-.014.015z"/><circle class="fil3" cx="3.16" cy="2.204" r=".041"/><circle class="fil3" cx="3.636" cy="2.204" r=".041"/></g></svg>